<svg viewBox="0 0 64 64" xmlns="http://www.w3.org/2000/svg" xmlns:xlink="http://www.w3.org/1999/xlink" id="icon-ui-svg" overflow="hidden"><path d="M20 28.9 17 28.9 17 28.1 20 28.1ZM35 10.1 32 10.1 32 10.9 35 10.9ZM35 7.1 32 7.1 32 7.9 35 7.9ZM20 22.1 17 22.1 17 22.9 20 22.9ZM20 25.1 17 25.1 17 25.9 20 25.9ZM23.9 37.833 23.9 39.167C23.8201 40.1947 22.9286 40.9672 21.9 40.9L20.9 40.9 20.9 44 20.1 44 20.1 40.9 19.1 40.9C18.0714 40.9672 17.1799 40.1947 17.1 39.167L17.1 38.28C17.0949 37.2709 17.3612 36.2789 17.871 35.408 19.041 33.438 20.249 33.288 21.056 33.509 22.766 33.978 23.9 36.422 23.9 37.834ZM23.1 37.833C23.1 36.675 22.09 34.623 20.844 34.281 20.7349 34.2508 20.6222 34.2353 20.509 34.235 19.683 34.235 19.003 35.067 18.559 35.815 18.1217 36.5625 17.8937 37.414 17.899 38.28L17.899 39.166C17.9819 39.7503 18.5133 40.1636 19.1 40.1L21.9 40.1C22.4864 40.163 23.0171 39.7499 23.1 39.166ZM33.9 35.833 33.9 37.167C33.8201 38.1947 32.9286 38.9672 31.9 38.9L30.9 38.9 30.9 41 30.1 41 30.1 38.9 29.1 38.9C28.0714 38.9672 27.1799 38.1947 27.1 37.167L27.1 36.28C27.0949 35.2709 27.3612 34.2789 27.871 33.408 29.04 31.438 30.249 31.288 31.056 31.509 32.766 31.978 33.9 34.422 33.9 35.834ZM33.1 35.833C33.1 34.675 32.09 32.623 30.844 32.281 30.7349 32.2508 30.6222 32.2353 30.509 32.235 29.683 32.235 29.003 33.067 28.559 33.815 28.1217 34.5625 27.8937 35.414 27.899 36.28L27.899 37.166C27.9819 37.7503 28.5133 38.1636 29.1 38.1L31.9 38.1C32.4864 38.163 33.0171 37.7499 33.1 37.166ZM53.9 36.833 53.9 38.167C53.8201 39.1947 52.9286 39.9672 51.9 39.9L50.9 39.9 50.9 43 50.1 43 50.1 39.9 49.1 39.9C48.0714 39.9672 47.1799 39.1947 47.1 38.167L47.1 37.28C47.0949 36.2709 47.3612 35.2789 47.871 34.408 49.041 32.438 50.249 32.288 51.056 32.509 52.766 32.978 53.9 35.422 53.9 36.834ZM53.1 36.833C53.1 35.675 52.09 33.623 50.844 33.281 50.7349 33.2508 50.6222 33.2353 50.509 33.235 49.683 33.235 49.003 34.067 48.559 34.815 48.1217 35.5625 47.8937 36.414 47.899 37.28L47.899 38.166C47.9819 38.7503 48.5133 39.1636 49.1 39.1L51.9 39.1C52.4864 39.163 53.0171 38.7499 53.1 38.166ZM35 13.1 32 13.1 32 13.9 35 13.9ZM46.1 33 46.9 33 46.9 25 46.1 25ZM63.378 37.2 32.666 58.08 1.956 37.2 11.1 30.982 11.1 20.1 14.1 20.1 14.1 17.1 22.9 17.1 22.9 27.1 25.1 27.1 25.1 11.487 28.1 8.82 28.1 4.82 31.182 2.1 36.9 2.1 36.9 16.1 41.9 16.1 41.9 21.1 43.2 21.1 45.867 19.1 55.9 19.1 55.9 32.115ZM32.666 57.11 61.956 37.2 55.9 33.083 55.9 36.9 55 36.9 55 36.834C54.9974 36.5883 54.9753 36.3432 54.934 36.101L55.1 36.101 55.1 19.9 46.133 19.9 43.467 21.9 36.9 21.9 36.9 36.1 46.113 36.1C46.0681 36.3647 46.0388 36.6318 46.025 36.9L36.1 36.9 36.1 32.9 34.14 32.9C33.9821 32.6209 33.8043 32.3536 33.608 32.1L36.1 32.1 36.1 21.1 41.1 21.1 41.1 16.9 36.1 16.9 36.1 2.9 31.485 2.9 28.9 5.18 28.9 9.18 25.9 11.846 25.9 27.9 22.9 27.9 22.9 32.1 27.429 32.1C27.2462 32.3389 27.0776 32.5883 26.924 32.847 26.914 32.864 26.908 32.883 26.898 32.9L22.9 32.9 22.9 33.339C22.6554 33.1198 22.3871 32.9286 22.1 32.769L22.1 17.9 14.9 17.9 14.9 20.9 11.9 20.9 11.9 35.1 16.797 35.1C16.6592 35.3583 16.5389 35.6255 16.437 35.9L11.1 35.9 11.1 31.95 3.378 37.2ZM35 16.101 32 16.101 32 16.9 35 16.9ZM40.1 33 40.9 33 40.9 25 40.1 25ZM43.1 33 43.9 33 43.9 25 43.1 25Z" id="icon-ui-svg--base" fill="#0F05A0"/></svg>