<svg viewBox="0 0 64 64" xmlns="http://www.w3.org/2000/svg" xmlns:xlink="http://www.w3.org/1999/xlink" id="icon-ui-svg" overflow="hidden"><path d="M31.251 29.9 2.125 29.9 2.125 29.1 31.663 29.1ZM46.233 29.9 46.646 29.1 41.603 29.1 42.014 29.9ZM61.875 29.1 50.355 29.1 50.767 29.9 61.875 29.9ZM5.1 9C5.1 6.84609 6.84609 5.1 9 5.1 11.1539 5.1 12.9 6.84609 12.9 9 12.9 11.1539 11.1539 12.9 9 12.9 6.84723 12.8972 5.10275 11.1528 5.1 9ZM5.9 9C5.9 10.7121 7.28792 12.1 9 12.1 10.7121 12.1 12.1 10.7121 12.1 9 12.1 7.28792 10.7121 5.9 9 5.9 7.2886 5.90165 5.90165 7.2886 5.9 9ZM16.999 14.371 21.891 19.39 20.863 20.4 21.423 20.97 31.85 10.728 37.37 15.93 32.72 20.602 33.287 21.166 42.007 12.406 55.773 26.31 56.341 25.747 42.008 11.27 37.934 15.362 31.837 9.617 22.462 18.829 17.002 13.229 3.715 26.719 4.285 27.28ZM31.325 39.901 33.518 35.901 32.234 35.901 34.208 31.901 32.891 31.901 36.5 24.597 40.109 31.9 38.792 31.9 40.766 35.9 39.482 35.9 41.675 39.9ZM34.869 35.1 32.675 39.1 40.325 39.1 38.131 35.1 39.479 35.1 37.505 31.1 38.821 31.1 36.5 26.403 34.18 31.1 35.495 31.1 33.521 35.1ZM42.789 45.9 45.225 41.9 43.8 41.9 45.994 37.9 44.53 37.9 48.5 30.669 52.47 37.9 51.007 37.9 53.201 41.9 51.775 41.9 54.212 45.9ZM46.649 41.1 44.212 45.1 52.788 45.1 50.351 41.1 51.85 41.1 49.656 37.1 51.118 37.1 48.5 32.33 45.882 37.1 47.344 37.1 45.15 41.1ZM9.397 43.924C11.017 42.35 13.031 40.391 13.064 38.507 13.103 36.325 10.612 33.941 8.282 32.65L7.895 33.35C10.09 34.566 12.295 36.724 12.265 38.493 12.237 40.047 10.353 41.879 8.839 43.351 7.98048 44.0504 7.2581 44.9019 6.708 45.863 5.47 49.266 7.846 51.733 14.912 54.375 20.538 56.479 33.975 60.166 44.797 62.888L44.992 62.112C34.192 59.396 20.789 55.718 15.192 53.625 7.102 50.6 6.695 48.238 7.46 46.137 7.98635 45.3029 8.63992 44.5562 9.397 43.924ZM15.71 45.494C15.7456 44.4161 16.0767 43.3686 16.667 42.466 17.4974 41.1243 17.9375 39.5778 17.938 38 17.938 35.673 16.243 33.184 13.288 31.169L12.837 31.831C15.571 33.693 17.139 35.941 17.139 38 17.1376 39.4453 16.7301 40.8611 15.963 42.086 15.3108 43.1057 14.9469 44.2831 14.91 45.493 14.91 47.02 14.91 51.666 62.752 57.397L62.847 56.603C21.834 51.689 15.71 47.533 15.71 45.493Z" id="icon-ui-svg--base" fill="#0F05A0"/></svg>