<svg viewBox="0 0 64 64" xmlns="http://www.w3.org/2000/svg" xmlns:xlink="http://www.w3.org/1999/xlink" id="icon-ui-svg" overflow="hidden"><path d="M31.876 56.116C17.53 56.098 7.9 52.876 7.9 49.867L7.9 27.657C10.857 30.974 21.578 32.9 31.999 32.9 33.127 32.9 34.259 32.873 35.384 32.829L36.807 31.969C35.2058 32.0552 33.6025 32.0986 31.999 32.099 17.594 32.099 7.916 28.847 7.899 25.806L7.899 14.916C10.856 18.066 21.578 19.896 31.999 19.896 42.423 19.896 53.145 18.066 56.1 14.915L56.1 25.799C56.1 27.101 54.314 28.441 51.154 29.55L52.021 30.074C53.5473 29.5891 54.9428 28.7621 56.101 27.656L56.101 32.537 56.9 33.02 56.9 13.15C56.9 8.737 44.24 6.1 32 6.1 19.76 6.1 7.1 8.737 7.1 13.15L7.1 25.8 7.1 25.8 7.101 25.816 7.101 49.868C7.101 54.282 19.761 56.92 32.001 56.92 32.3977 56.92 32.7943 56.917 33.191 56.911ZM7.9 13.15C7.9 10.132 17.584 6.9 32 6.9 46.416 6.9 56.1 10.132 56.1 13.15 56.1 16.021 46.416 19.096 32 19.096 17.59 19.096 7.91 16.025 7.9 13.156ZM61.84 45.567C61.8215 45.3241 61.6763 45.109 61.458 45.001L56.785 42.179 61.457 39.357C61.7693 39.2307 61.9201 38.8751 61.7938 38.5628 61.7318 38.4095 61.6103 38.288 61.457 38.226L46.653 29.286C46.2273 29.0923 45.7387 29.0923 45.313 29.286L30.509 38.226C30.2913 38.3335 30.1464 38.5479 30.128 38.79 30.1469 39.033 30.2919 39.2482 30.51 39.357L35.179 42.177 30.511 44.999C30.198 45.1237 30.0454 45.4784 30.17 45.7914 30.2319 45.9467 30.3548 46.0699 30.51 46.132L35.128 48.921 30.508 51.711C30.2905 51.8186 30.146 52.033 30.128 52.275 30.1448 52.518 30.2906 52.7333 30.51 52.839L45.313 61.779C45.7365 61.9841 46.2305 61.9841 46.654 61.779L61.459 52.839C61.7716 52.7119 61.922 52.3555 61.7949 52.0429 61.7328 51.8902 61.6117 51.7691 61.459 51.707L56.843 48.917 61.457 46.132C61.6768 46.026 61.823 45.8104 61.84 45.567ZM45.723 29.973C45.8061 29.9424 45.8945 29.9288 45.983 29.933 46.0703 29.9295 46.1575 29.9424 46.24 29.971L60.846 38.792 46.243 47.61C46.1601 47.6402 46.0721 47.6538 45.984 47.65 45.8966 47.6542 45.8092 47.641 45.727 47.611L31.125 38.79ZM60.844 52.276 46.245 61.092C46.0729 61.1115 45.8991 61.1115 45.727 61.092L31.127 52.272 35.902 49.388 45.311 55.069C45.7348 55.2754 46.2299 55.2758 46.654 55.07L56.068 49.385ZM46.241 54.385C46.159 54.4157 46.0714 54.429 45.984 54.424 45.8967 54.4282 45.8094 54.4153 45.727 54.386L31.125 45.563 35.938 42.654 35.919 42.624 45.311 48.294C45.7343 48.5018 46.2298 48.5029 46.654 48.297L56.044 42.626 56.026 42.656 60.84 45.569Z" id="icon-ui-svg--base" fill="#0F05A0"/></svg>