<svg viewBox="0 0 64 64" xmlns="http://www.w3.org/2000/svg" xmlns:xlink="http://www.w3.org/1999/xlink" id="icon-ui-svg" overflow="hidden"><path d="M34.873 22 33.529 22 48.327 11.04C48.4703 11.2653 48.6237 11.4833 48.787 11.694ZM53.129 14.657 49.9 21.81 50.505 22.415 53.921 14.847C53.6523 14.7963 53.3883 14.733 53.129 14.657ZM58.899 15 58.1 15 58.1 19 58.9 19ZM58.899 21 58.1 21 58.1 36.58 58.9 36.765ZM47.034 6 26.164 13.422 26.474 14.161 47.019 6.855C47.014 6.738 47.001 6.624 47.001 6.505 47.001 6.336 47.024 6.169 47.034 6ZM11.712 18.56 12.019 19.3 20.232 16.38 19.922 15.64ZM34.9 46.9 34.9 53.015C43.197 53.355 43.9 54.125 43.9 54.885 43.9 56.718 35.578 56.915 32 56.915 28.422 56.915 20.1 56.718 20.1 54.885 20.1 54.125 20.803 53.355 29.1 53.015L29.1 46.9 5.892 46.9 15.737 24.1 48.263 24.1 58.108 46.9ZM24.845 38.1 39.274 38.1 38.607 31.9 25.512 31.9ZM24.708 31.9 13.24 31.9 10.563 38.1 24.04 38.1ZM38.521 31.1 37.853 24.9 26.266 24.9 25.598 31.1ZM50.76 31.9 39.41 31.9 40.078 38.1 53.436 38.1ZM24.759 38.9 23.984 46.1 40.135 46.1 39.36 38.9ZM56.892 46.1 53.782 38.9 40.165 38.9 40.94 46.1ZM47.737 24.9 38.658 24.9 39.325 31.1 50.415 31.1ZM13.586 31.1 24.794 31.1 25.461 24.9 16.263 24.9ZM7.108 46.1 23.18 46.1 23.955 38.9 10.218 38.9ZM34.1 46.9 29.9 46.9 29.9 53.784 29.515 53.799C21.967 54.088 21.005 54.735 20.891 54.927 21.168 55.36 24.889 56.116 32 56.116 39.111 56.116 42.832 55.36 43.107 54.849 42.994 54.735 42.033 54.088 34.485 53.799L34.1 53.784ZM55.502 12.1C52.4092 12.1013 49.9009 9.59519 49.8996 6.5024 49.8992 5.50366 50.1659 4.52298 50.672 3.662L49.982 3.255C48.188 6.30052 49.2026 10.2237 52.2481 12.0177 54.8571 13.5545 58.186 13.0527 60.226 10.815L59.636 10.275C58.5741 11.4351 57.0747 12.097 55.502 12.1Z" id="icon-ui-svg--base" fill="#0F05A0"/></svg>