<svg viewBox="0 0 64 64" xmlns="http://www.w3.org/2000/svg" xmlns:xlink="http://www.w3.org/1999/xlink" id="icon-ui-svg" overflow="hidden"><path d="M43 38.9 39 38.9 39 38.1 43 38.1ZM43 41.1 39 41.1 39 41.9 43 41.9ZM43 44.1 39 44.1 39 44.9 43 44.9ZM43 47.1 39 47.1 39 47.9 43 47.9ZM39 50.9 43 50.9 43 50.1 39 50.1ZM48.9 8.9 42.1 8.9 42.1 2.1 48.9 2.1ZM48.1 2.9 42.9 2.9 42.9 8.1 48.1 8.1ZM50.1 12.1 56.9 12.1 56.9 18.9 50.1 18.9ZM50.9 18.1 56.1 18.1 56.1 12.9 50.9 12.9ZM46.1 22.1 51.9 22.1 51.9 27.9 46.1 27.9ZM46.9 27.1 51.1 27.1 51.1 22.9 46.9 22.9ZM6.1 15.1 10.9 15.1 10.9 19.9 6.1 19.9ZM6.9 19.1 10.1 19.1 10.1 15.9 6.9 15.9ZM43.9 19.9 36.1 19.9 36.1 12.1 43.9 12.1ZM43.1 12.9 36.9 12.9 36.9 19.1 43.1 19.1ZM35.9 29.9 31.1 29.9 31.1 25.1 35.9 25.1ZM35.1 25.9 31.9 25.9 31.9 29.1 35.1 29.1ZM58.9 3.1 58.9 5.9 56.1 5.9 56.1 3.1ZM58.1 3.9 56.9 3.9 56.9 5.1 58.1 5.1ZM29.9 21.9 24.1 21.9 24.1 16.1 29.9 16.1ZM29.1 16.9 24.9 16.9 24.9 21.1 29.1 21.1ZM6.1 3.1 10.9 3.1 10.9 7.9 6.1 7.9ZM6.9 7.1 10.1 7.1 10.1 3.9 6.9 3.9ZM34.9 6.9 32.1 6.9 32.1 4.1 34.9 4.1ZM34.1 4.9 32.9 4.9 32.9 6.1 34.1 6.1ZM18.9 29.9 12.1 29.9 12.1 23.1 18.9 23.1ZM18.1 23.9 12.9 23.9 12.9 29.1 18.1 29.1ZM20.9 16.9 15.1 16.9 15.1 11.1 20.9 11.1ZM20.1 11.9 15.9 11.9 15.9 16.1 20.1 16.1ZM23.9 6.9 19.1 6.9 19.1 2.1 23.9 2.1ZM23.1 2.9 19.9 2.9 19.9 6.1 23.1 6.1ZM25.1 34.1 28.9 34.1 28.9 37.9 25.1 37.9ZM25.9 37.1 28.1 37.1 28.1 34.9 25.9 34.9ZM22.1 27.1 25.9 27.1 25.9 30.9 22.1 30.9ZM22.9 30.1 25.1 30.1 25.1 27.9 22.9 27.9ZM41.9 23.1 41.9 26.9 38.1 26.9 38.1 23.1ZM41.1 23.9 38.9 23.9 38.9 26.1 41.1 26.1ZM45.9 61 45.9 35.1 42.9 35.1 42.9 34.1 35.1 34.1 35.1 35.1 32.1 35.1 32.1 52.1 29.9 52.1 29.9 46.36 25.692 41.1 19.1 41.1 19.1 61 19.9 61 19.9 41.9 25.308 41.9 29.1 46.64 29.1 52.1 27 52.1 27 52.9 32.9 52.9 32.9 35.9 35.9 35.9 35.9 34.9 42.1 34.9 42.1 35.9 45.1 35.9 45.1 61ZM22 55.9 24 55.9 24 55.1 22 55.1ZM24 52.1 22 52.1 22 52.9 24 52.9ZM24 46.1 22 46.1 22 46.9 24 46.9ZM24 49.1 22 49.1 22 49.9 24 49.9ZM16 62.9 49 62.9 49 62.1 16 62.1Z" id="icon-ui-svg--base" fill="#0F05A0"/></svg>