<svg width="96" height="96" xmlns="http://www.w3.org/2000/svg" xmlns:xlink="http://www.w3.org/1999/xlink" xml:space="preserve" overflow="hidden"><defs><clipPath id="clip0"><rect x="204" y="186" width="96" height="96"/></clipPath></defs><g clip-path="url(#clip0)" transform="translate(-204 -186)"><path d="M252 235.65C247.66 227.34 242.1 224.36 237 224.51L237 214.1C237 205.816 243.716 199.1 252 199.1 260.284 199.1 267 205.816 267 214.1L267 218.1 273 218.1 273 214.1C273 202.502 263.598 193.1 252 193.1 240.402 193.1 231 202.502 231 214.1L231 226.17C226.21 228.75 222.75 233.94 222.75 238.97 222.75 256.41 252 274.9 252 274.9 252 274.9 281.25 256.41 281.25 239 281.25 227.35 262.84 214.89 252 235.65ZM254 253.75 254 259.1 250 259.1 250 253.75C246.876 252.645 245.239 249.217 246.343 246.093 247.448 242.969 250.876 241.332 254 242.436 257.124 243.541 258.761 246.969 257.657 250.093 257.053 251.802 255.709 253.146 254 253.75Z" fill="#BF8CC9"/></g></svg>