<svg viewBox="0 0 64 64" xmlns="http://www.w3.org/2000/svg" xmlns:xlink="http://www.w3.org/1999/xlink" overflow="hidden"><path d="M10.553 51.947 9.846 52.654C-1.85325 40.7261-1.9613 21.6618 9.602 9.602L10.309 10.309C-0.862557 21.9787-0.754555 40.409 10.553 51.947ZM62 31C62.0019 39.2008 58.6364 47.0426 52.691 52.691L53.398 53.398C65.7688 41.6206 66.2498 22.0446 54.4724 9.67381 54.2048 9.39277 53.932 9.11678 53.654 8.846L52.947 9.553C58.7375 15.1859 62.0028 22.9217 62 31ZM56 31C56.0013 37.6097 53.2686 43.9257 48.45 48.45L49.158 49.158C59.186 39.7138 59.6593 23.9285 50.2151 13.9005 49.954 13.6233 49.6865 13.352 49.413 13.087L48.707 13.793C53.3703 18.3027 56.0024 24.5128 56 31ZM50 31C49.9972 36.0172 47.8929 40.8039 44.198 44.198L44.905 44.905C52.5868 37.8231 53.0731 25.8547 45.9911 18.173 45.7252 17.8845 45.4504 17.6044 45.167 17.333L44.46 18.04C47.9978 21.423 49.9992 26.105 50 31ZM14.087 48.413 14.793 47.707C5.82991 38.5094 5.72224 23.8775 14.549 14.549L13.842 13.842C4.62508 23.561 4.73326 38.8256 14.087 48.413ZM18.333 44.167 19.04 43.46C12.4136 36.6128 12.309 25.7759 18.802 18.802L18.095 18.095C11.2101 25.459 11.3148 36.9299 18.333 44.167ZM41 21 40 21 40 26 33 26 33 34 37 34 37 39 34 39 34 55 33 55 33 39 30 39 30 55 29 55 29 39 26 39 26 34 30 34 30 26 23 26 23 21 22 21 22 16.861 22.071 16.743C22.14 16.63 23.811 14 32 14 40.174 14 40.94 16.605 41 16.902ZM27 35 27 38 36 38 36 35ZM32 26 31 26 31 34 32 34ZM34 21 24 21 24 25 34 25ZM36 21 35 21 35 25 36 25ZM39 21 37 21 37 25 39 25ZM40 17.083C39.872 16.806 38.777 15 32 15 25.382 15 23.388 16.747 23 17.173L23 20 40 20Z" fill="#0F05A0"/></svg>