<svg viewBox="0 0 64 64" xmlns="http://www.w3.org/2000/svg" xmlns:xlink="http://www.w3.org/1999/xlink" id="icon-ui-svg" overflow="hidden"><path d="M47.9 47.9 46 47.9 46 47.1 47.1 47.1 47.1 46 47.9 46ZM47.9 40 47.1 40 47.1 43 47.9 43ZM47.9 34 47.1 34 47.1 37 47.9 37ZM47.9 28 47.1 28 47.1 31 47.9 31ZM47.9 23.1 46 23.1 46 23.9 47.1 23.9 47.1 25 47.9 25ZM43.4 23.1 40.8 23.1 40.8 23.9 43.4 23.9ZM38.2 23.1 35.6 23.1 35.6 23.9 38.2 23.9ZM31.9 23.9 33 23.9 33 23.1 31.1 23.1 31.1 25 31.9 25ZM31.9 27.667 31.1 27.667 31.1 30.334 31.9 30.334ZM31.9 33 31.1 33 31.1 34.1 30 34.1 30 34.9 31.9 34.9ZM27.6 34.1 25.2 34.1 25.2 34.9 27.6 34.9ZM22.8 34.1 20.4 34.1 20.4 34.9 22.8 34.9ZM16.9 34.9 18 34.9 18 34.1 16.1 34.1 16.1 36 16.9 36ZM16.9 39.333 16.1 39.333 16.1 42.666 16.9 42.666ZM18 47.1 16.9 47.1 16.9 46 16.1 46 16.1 47.9 18 47.9ZM42.89 47.1 39.778 47.1 39.778 47.9 42.889 47.9ZM36.667 47.1 33.556 47.1 33.556 47.9 36.667 47.9ZM30.445 47.1 27.334 47.1 27.334 47.9 30.444 47.9ZM24.223 47.1 21.11 47.1 21.11 47.9 24.222 47.9ZM58.5 12.1 56.1 12.1 56.1 18.1 7.9 18.1 7.9 12.1 6.5 12.1C4.07109 12.1028 2.10276 14.0711 2.1 16.5L2.1 48.5C2.10276 50.9289 4.07109 52.8972 6.5 52.9L58.5 52.9C60.9289 52.8972 62.8972 50.9289 62.9 48.5L62.9 16.5C62.8972 14.0711 60.9289 12.1028 58.5 12.1ZM2.9 16.5C2.9022 14.5127 4.51269 12.9022 6.5 12.9L7.1 12.9 7.1 44.1 6.5 44.1C5.0665 44.1005 3.72315 44.7994 2.9 45.973ZM58.5 52.1 6.5 52.1C4.51178 52.1 2.9 50.4882 2.9 48.5 2.9 46.5118 4.51178 44.9 6.5 44.9L7.9 44.9 7.9 18.9 56.1 18.9 56.1 44.9 58.5 44.9C60.4882 44.9 62.1 46.5118 62.1 48.5 62.1 50.4882 60.4882 52.1 58.5 52.1ZM62.1 45.973C61.2769 44.7994 59.9335 44.1005 58.5 44.1L56.9 44.1 56.9 12.9 58.5 12.9C60.4873 12.9022 62.0978 14.5127 62.1 16.5ZM43.617 40.218 43.898 40.501 40.283 44.116 39.717 43.55 42.367 40.9 21.633 40.9 24.283 43.55 23.717 44.116 20.102 40.501 20.382 40.218C23.702 36.885 23.734 36.863 23.78 36.833L24.22 37.501C24.157 37.564 22.81 38.914 21.63 40.1L42.37 40.1C41.4953 39.219 40.6173 38.3414 39.736 37.467L40.22 36.833C40.266 36.863 40.299 36.885 43.617 40.218Z" id="icon-ui-svg--base" fill="#0F05A0"/></svg>