<svg width="64" height="64" xmlns="http://www.w3.org/2000/svg" xmlns:xlink="http://www.w3.org/1999/xlink" overflow="hidden"><defs><clipPath id="clip0"><rect x="728" y="104" width="64" height="64"/></clipPath></defs><g clip-path="url(#clip0)" transform="translate(-728 -104)"><path d="M759.876 160.116C745.53 160.098 735.9 156.876 735.9 153.867L735.9 131.657C738.857 134.974 749.578 136.9 759.999 136.9 761.127 136.9 762.259 136.873 763.384 136.829L764.807 135.969C763.206 136.055 761.602 136.099 759.999 136.099 745.594 136.099 735.916 132.847 735.899 129.806L735.899 118.916C738.856 122.066 749.578 123.896 759.999 123.896 770.423 123.896 781.145 122.066 784.1 118.915L784.1 129.799C784.1 131.101 782.314 132.441 779.154 133.55L780.021 134.074C781.547 133.589 782.943 132.762 784.101 131.656L784.101 136.537 784.9 137.02 784.9 117.15C784.9 112.737 772.24 110.1 760 110.1 747.76 110.1 735.1 112.737 735.1 117.15L735.1 129.8 735.1 129.8 735.101 129.816 735.101 153.868C735.101 158.282 747.761 160.92 760.001 160.92 760.398 160.92 760.794 160.917 761.191 160.911ZM735.9 117.15C735.9 114.132 745.584 110.9 760 110.9 774.416 110.9 784.1 114.132 784.1 117.15 784.1 120.021 774.416 123.096 760 123.096 745.59 123.096 735.91 120.025 735.9 117.156ZM789.84 149.567C789.821 149.324 789.676 149.109 789.458 149.001L784.785 146.179 789.457 143.357C789.769 143.231 789.92 142.875 789.794 142.563 789.732 142.41 789.61 142.288 789.457 142.226L774.653 133.286C774.227 133.092 773.739 133.092 773.313 133.286L758.509 142.226C758.291 142.333 758.146 142.548 758.128 142.79 758.147 143.033 758.292 143.248 758.51 143.357L763.179 146.177 758.511 148.999C758.198 149.124 758.045 149.478 758.17 149.791 758.232 149.947 758.355 150.07 758.51 150.132L763.128 152.921 758.508 155.711C758.291 155.819 758.146 156.033 758.128 156.275 758.145 156.518 758.291 156.733 758.51 156.839L773.313 165.779C773.737 165.984 774.23 165.984 774.654 165.779L789.459 156.839C789.772 156.712 789.922 156.355 789.795 156.043 789.733 155.89 789.612 155.769 789.459 155.707L784.843 152.917 789.457 150.132C789.677 150.026 789.823 149.81 789.84 149.567ZM773.723 133.973C773.806 133.942 773.895 133.929 773.983 133.933 774.07 133.93 774.157 133.942 774.24 133.971L788.846 142.792 774.243 151.61C774.16 151.64 774.072 151.654 773.984 151.65 773.897 151.654 773.809 151.641 773.727 151.611L759.125 142.79ZM788.844 156.276 774.245 165.092C774.073 165.111 773.899 165.111 773.727 165.092L759.127 156.272 763.902 153.388 773.311 159.069C773.735 159.275 774.23 159.276 774.654 159.07L784.068 153.385ZM774.241 158.385C774.159 158.416 774.071 158.429 773.984 158.424 773.897 158.428 773.809 158.415 773.727 158.386L759.125 149.563 763.938 146.654 763.919 146.624 773.311 152.294C773.734 152.502 774.23 152.503 774.654 152.297L784.044 146.626 784.026 146.656 788.84 149.569Z" fill="#DB0B18"/></g></svg>