<svg viewBox="0 0 64 64" xmlns="http://www.w3.org/2000/svg" xmlns:xlink="http://www.w3.org/1999/xlink" id="icon-ui-svg" overflow="hidden"><path d="M22.01 14.1C18.1992 14.0994 15.1096 17.1882 15.109 20.999 15.1084 24.8098 18.1972 27.8994 22.008 27.9 25.8188 27.9006 28.9084 24.8118 28.909 21.001 28.909 21.0007 28.909 21.0003 28.909 21 28.9046 17.1911 25.8179 14.1044 22.009 14.1ZM22.01 27.1C18.6411 27.1006 15.9096 24.3699 15.909 21.001 15.9084 17.6321 18.6391 14.9006 22.008 14.9 25.3769 14.8994 28.1084 17.6301 28.109 20.999 28.109 20.9993 28.109 20.9997 28.109 21 28.1051 24.3673 25.3763 27.0961 22.009 27.1ZM27.923 49.69 28.49 50.256 27.009 51.743 21.984 56.208 8.1 42.324 8.1 13.47C8.1 4.9 15.664 3.1 22.01 3.1 31.097 3.1 35.9 6.686 35.9 13.47L35.9 28.093C35.6307 28.157 35.364 28.225 35.1 28.297L35.1 13.47C35.1 5.56 27.981 3.9 22.01 3.9 16.03 3.9 8.9 5.56 8.9 13.47L8.9 41.993 22.016 55.109 26.459 51.162ZM60.9 33.5C60.899 30.671 53.223 29.146 46 29.146 38.777 29.146 31.101 30.67 31.1 33.5L31.1 56.537C31.1 59.366 38.777 60.892 46 60.892 53.223 60.892 60.9 59.366 60.9 56.537L60.9 33.5ZM46 29.945C54.31 29.945 60.1 31.819 60.1 33.5 60.1 35.202 54.31 37.1 46 37.1 37.69 37.1 31.9 35.202 31.9 33.5 31.9 31.819 37.69 29.945 46 29.945ZM46 60.092C37.69 60.092 31.9 58.218 31.9 56.537L31.9 43C34.043 44.893 40.167 45.9 46 45.9 51.833 45.9 57.957 44.893 60.1 43L60.1 56.537C60.1 58.218 54.31 60.092 46 60.092ZM46 45.1C37.69 45.1 31.9 43.202 31.9 41.5L31.9 35C34.043 36.893 40.167 37.9 46 37.9 51.833 37.9 57.957 36.893 60.1 35L60.1 41.5C60.1 43.202 54.31 45.1 46 45.1Z" id="icon-ui-svg--base" stroke="#009999"/></svg>