<svg viewBox="0 0 64 64" xmlns="http://www.w3.org/2000/svg" xmlns:xlink="http://www.w3.org/1999/xlink" id="icon-ui-svg" overflow="hidden"><path d="M11 24.9C13.1528 24.8972 14.8972 23.1528 14.9 21 14.898 20.1766 14.6331 19.3754 14.144 18.713L22.585 11.039C23.8776 12.0933 25.7041 12.1891 27.1 11.276L37.337 26.166C35.7503 27.6307 35.6514 30.1044 37.1161 31.6912 38.5808 33.2779 41.0545 33.3768 42.6413 31.9121 43.9835 30.673 44.289 28.6698 43.377 27.087L52.29 19.795C53.8259 21.2623 56.2604 21.2066 57.7276 19.6707 59.1949 18.1349 59.1393 15.7003 57.6034 14.2331 56.0675 12.7658 53.633 12.8215 52.1657 14.3574 50.9104 15.6714 50.7462 17.6849 51.772 19.185L42.913 26.433C41.6785 24.9979 39.581 24.6792 37.976 25.683L27.729 10.779C29.2833 9.27833 29.3268 6.80177 27.8262 5.24745 26.3255 3.69313 23.8489 3.64963 22.2946 5.1503 20.8168 6.57709 20.6942 8.90386 22.014 10.478L13.607 18.12C12.0131 16.6762 9.55056 16.7979 8.10676 18.3918 6.66296 19.9857 6.78464 22.4482 8.37854 23.892 9.09655 24.5424 10.0312 24.9018 11 24.9ZM55 13.9C56.7121 13.9 58.1 15.2879 58.1 17 58.1 18.7121 56.7121 20.1 55 20.1 53.2879 20.1 51.9 18.7121 51.9 17 51.9017 15.2886 53.2886 13.9017 55 13.9ZM43.1 29C43.1 30.7121 41.7121 32.1 40 32.1 38.2879 32.1 36.9 30.7121 36.9 29 36.9 27.2879 38.2879 25.9 40 25.9 41.7114 25.9017 43.0983 27.2886 43.1 29ZM25 4.9C26.7121 4.9 28.1 6.28792 28.1 8 28.1 9.71208 26.7121 11.1 25 11.1 23.2879 11.1 21.9 9.71208 21.9 8 21.9017 6.2886 23.2886 4.90165 25 4.9ZM11 17.9C12.7121 17.9 14.1 19.2879 14.1 21 14.1 22.7121 12.7121 24.1 11 24.1 9.28792 24.1 7.9 22.7121 7.9 21 7.90165 19.2886 9.2886 17.9017 11 17.9ZM48.907 38.1 16.427 38.1 5.333 58.9 60 58.9ZM23.593 43.9 32.1 43.9 32.1 50.1 21.902 50.1ZM21.073 50.1 10.933 50.1 14.24 43.9 22.764 43.9ZM54.4 50.1 44.26 50.1 42.569 43.9 51.093 43.9ZM43.43 50.1 32.9 50.1 32.9 43.9 41.74 43.9ZM32.9 43.1 32.9 38.9 40.376 38.9 41.522 43.1ZM32.1 43.1 23.811 43.1 24.957 38.9 32.1 38.9ZM32.1 50.9 32.1 58.1 19.72 58.1 21.684 50.9ZM32.9 50.9 43.65 50.9 45.613 58.1 32.9 58.1ZM44.478 50.9 54.827 50.9 58.667 58.1 46.442 58.1ZM50.666 43.1 42.351 43.1 41.205 38.9 48.426 38.9ZM16.906 38.9 24.128 38.9 22.982 43.1 14.667 43.1ZM10.506 50.9 20.855 50.9 18.891 58.1 6.667 58.1Z" id="icon-ui-svg--base" fill="#009999"/></svg>