<svg viewBox="0 0 64 64" xmlns="http://www.w3.org/2000/svg" xmlns:xlink="http://www.w3.org/1999/xlink" id="icon-ui-svg" overflow="hidden"><path d="M27 48.9 13.2 48.9C6.05896 48.9006 0.269528 43.1121 0.268947 35.9711 0.268525 30.7914 3.35918 26.1114 8.123 24.078 8.10796 23.8637 8.10029 23.6489 8.1 23.434 8.08706 18.0338 12.4543 13.6455 17.8545 13.6326 18.9403 13.63 20.0188 13.8082 21.046 14.16 23.75 9.245 28.989 6.322 35.134 6.322 43.521 6.322 50.179 12.063 51.089 20.021 59.0341 21.05 64.6407 28.3249 63.6117 36.27 63.3027 38.6558 62.4052 40.9273 61 42.88L61 41.424C64.8758 34.9212 62.7462 26.5078 56.2434 22.632 54.5454 21.62 52.6485 20.9872 50.683 20.777L50.357 20.743 50.327 20.417C49.6 12.714 43.211 7.123 35.133 7.123 29.165 7.123 24.102 10.007 21.589 14.838L21.425 15.153 21.092 15.027C16.4598 13.2536 11.267 15.5711 9.49362 20.2033 9.09882 21.2346 8.89758 22.3298 8.9 23.434 8.9 23.726 8.917 24.014 8.944 24.298L8.973 24.596 8.694 24.707C2.47362 27.1942-0.552704 34.2531 1.93452 40.4735 3.77658 45.0804 8.23852 48.101 13.2 48.1L27 48.1ZM58.9 33.5 58.9 56.537C58.9 59.367 51.224 60.893 44 60.893 36.776 60.893 29.1 59.366 29.1 56.537L29.1 33.5C29.1 30.672 36.776 29.146 44 29.146 51.224 29.146 58.9 30.672 58.9 33.5ZM29.9 33.5C29.9 35.203 35.69 37.1 44 37.1 52.31 37.1 58.1 35.203 58.1 33.5 58.1 31.82 52.31 29.946 44 29.946 35.69 29.946 29.9 31.82 29.9 33.5ZM58.1 56.537 58.1 43C55.956 44.892 49.833 45.9 44 45.9 38.167 45.9 32.044 44.891 29.9 43L29.9 56.537C29.9 58.219 35.69 60.092 44 60.092 52.31 60.092 58.1 58.219 58.1 56.537ZM58.1 41.499 58.1 35.001C55.956 36.893 49.833 37.901 44 37.901 38.167 37.901 32.044 36.892 29.9 35L29.9 41.5C29.9 43.203 35.69 45.1 44 45.1 52.31 45.1 58.1 43.203 58.1 41.5Z" id="icon-ui-svg--base" fill="#009999"/></svg>