<svg viewBox="0 0 64 64" xmlns="http://www.w3.org/2000/svg" xmlns:xlink="http://www.w3.org/1999/xlink" id="icon-ui-svg" overflow="hidden"><path d="M29 48.1 6.466 48.1 9.672 44.894 9.105 44.328 5.9 47.534 5.9 18.9 17.1 18.9 17.1 23.82 17.9 23.82 17.9 18.9 36.1 18.9 36.1 28.047C36.3653 27.9857 36.632 27.928 36.9 27.874L36.9 18.666 48.1 7.466 48.1 27.091C48.352 27.101 48.622 27.115 48.9 27.13L48.9 5.1 17.325 5.1 5.1 18.344 5.1 48.9 29 48.9ZM17.1 6.523 17.1 11 17.9 11 17.9 5.9 48.1 5.9 48.1 6.334 36.334 18.1 17.9 18.1 17.9 14.59 17.1 14.59 17.1 18.1 6.414 18.1ZM17.9 31 17.9 36.1 23 36.1 23 36.9 17.666 36.9 13.895 40.672 13.328 40.106 17.1 36.334 17.1 31ZM60.9 33.5C60.9 30.671 53.223 29.146 46 29.146 38.777 29.146 31.1 30.67 31.1 33.5L31.1 56.537C31.1 59.366 38.776 60.892 46 60.892 53.224 60.892 60.9 59.366 60.9 56.537L60.9 33.5ZM46 29.945C54.31 29.945 60.099 31.819 60.1 33.5 60.099 35.202 54.31 37.1 46 37.1 37.69 37.1 31.901 35.202 31.9 33.5 31.901 31.819 37.69 29.945 46 29.945ZM46 60.092C37.69 60.092 31.9 58.218 31.9 56.537L31.9 43.001C34.044 44.893 40.167 45.899 46 45.899 51.833 45.899 57.956 44.893 60.1 43.001L60.1 56.537C60.1 58.218 54.31 60.092 46 60.092ZM46 45.1C37.69 45.1 31.9 43.202 31.9 41.5L31.9 35C34.044 36.892 40.167 37.898 46 37.898 51.833 37.898 57.956 36.892 60.1 35L60.1 41.498C60.1 43.201 54.31 45.098 46 45.098Z" id="icon-ui-svg--base" stroke="#009999"/></svg>