<svg width="64" height="64" xmlns="http://www.w3.org/2000/svg" xmlns:xlink="http://www.w3.org/1999/xlink" overflow="hidden"><defs><clipPath id="clip0"><rect x="608" y="328" width="64" height="64"/></clipPath></defs><g clip-path="url(#clip0)" transform="translate(-608 -328)"><path d="M635 376.9 621.2 376.9C614.059 376.901 608.27 371.112 608.269 363.971 608.269 358.791 611.359 354.111 616.123 352.078 616.108 351.864 616.1 351.649 616.1 351.434 616.087 346.034 620.454 341.646 625.854 341.633 626.94 341.63 628.019 341.808 629.046 342.16 631.75 337.245 636.989 334.322 643.134 334.322 651.521 334.322 658.179 340.063 659.089 348.021 667.034 349.05 672.641 356.325 671.612 364.27 671.303 366.656 670.405 368.927 669 370.88L669 369.424C672.876 362.921 670.746 354.508 664.243 350.632 662.545 349.62 660.648 348.987 658.683 348.777L658.357 348.743 658.327 348.417C657.6 340.714 651.211 335.123 643.133 335.123 637.165 335.123 632.102 338.007 629.589 342.838L629.425 343.153 629.092 343.027C624.46 341.254 619.267 343.571 617.494 348.203 617.099 349.235 616.898 350.33 616.9 351.434 616.9 351.726 616.917 352.014 616.944 352.298L616.973 352.596 616.694 352.707C610.474 355.194 607.447 362.253 609.935 368.474 611.777 373.08 616.239 376.101 621.2 376.1L635 376.1ZM666.9 361.5 666.9 384.537C666.9 387.367 659.224 388.893 652 388.893 644.776 388.893 637.1 387.366 637.1 384.537L637.1 361.5C637.1 358.672 644.776 357.146 652 357.146 659.224 357.146 666.9 358.672 666.9 361.5ZM637.9 361.5C637.9 363.203 643.69 365.1 652 365.1 660.31 365.1 666.1 363.203 666.1 361.5 666.1 359.82 660.31 357.946 652 357.946 643.69 357.946 637.9 359.82 637.9 361.5ZM666.1 384.537 666.1 371C663.956 372.892 657.833 373.9 652 373.9 646.167 373.9 640.044 372.891 637.9 371L637.9 384.537C637.9 386.219 643.69 388.092 652 388.092 660.31 388.092 666.1 386.219 666.1 384.537ZM666.1 369.499 666.1 363.001C663.956 364.893 657.833 365.901 652 365.901 646.167 365.901 640.044 364.892 637.9 363L637.9 369.5C637.9 371.203 643.69 373.1 652 373.1 660.31 373.1 666.1 371.203 666.1 369.5Z" fill="#DB0B18"/></g></svg>