<svg width="64" height="64" xmlns="http://www.w3.org/2000/svg" xmlns:xlink="http://www.w3.org/1999/xlink" overflow="hidden"><defs><clipPath id="clip0"><rect x="893" y="296" width="64" height="64"/></clipPath></defs><g clip-path="url(#clip0)" transform="translate(-893 -296)"><path d="M920 331.755C919.4 331.622 918.796 331.508 918.188 331.415L918.881 330.726C919.264 330.792 919.635 330.866 920 330.944ZM908.723 333.317 908.056 332.654C906.32 333.029 905.1 333.654 905.1 334.531 905.1 336.076 908.862 337 912.5 337 916.138 337 919.9 336.076 919.9 334.531 919.9 333.654 918.68 333.029 916.944 332.654L916.277 333.317C918.115 333.658 919.1 334.196 919.1 334.531 919.1 335.119 916.594 336.199 912.5 336.199 908.406 336.199 905.9 335.119 905.9 334.531 905.9 334.196 906.885 333.659 908.723 333.318ZM924.933 351.397C924.933 353.328 929.15 354.9 934.333 354.9 939.516 354.9 943.733 353.328 943.733 351.396 943.733 350.141 942.063 349.227 939.768 348.684L939.093 349.355C941.443 349.843 942.933 350.647 942.933 351.396 942.933 352.499 939.583 354.1 934.333 354.1 929.083 354.1 925.733 352.499 925.733 351.396 925.733 350.618 927.344 349.781 929.853 349.301L929.169 348.621C926.735 349.156 924.934 350.091 924.934 351.396ZM912.507 306.11C914.937 306.11 916.907 308.08 916.907 310.51 916.907 312.94 914.937 314.91 912.507 314.91 910.077 314.91 908.107 312.94 908.107 310.51 908.11 308.081 910.078 306.113 912.507 306.11ZM912.507 306.911C910.519 306.911 908.907 308.523 908.907 310.511 908.907 312.499 910.519 314.111 912.507 314.111 914.495 314.111 916.107 312.499 916.107 310.511 916.105 308.524 914.494 306.913 912.507 306.911ZM920 326.65 920 325.52 912.5 332.984 903.9 324.424 903.9 306.028C903.9 300.923 908.577 299.852 912.5 299.852 916.423 299.852 921.1 300.922 921.1 306.028L921.1 307.344C921.33 306.883 921.597 306.441 921.9 306.024 921.898 301.463 918.648 299.051 912.5 299.051 906.35 299.051 903.1 301.464 903.1 306.028L903.1 324.758 912.5 334.115ZM941.789 346.674 941.095 347.364C946.867 348.203 950.434 350.052 950.434 351.812 950.434 354.309 943.548 357.101 934.334 357.101 925.12 357.101 918.234 354.309 918.234 351.811 918.234 350.023 921.919 348.14 927.863 347.322L927.165 346.628C921.373 347.524 917.434 349.482 917.434 351.812 917.434 355.112 925.173 357.902 934.334 357.902 943.495 357.902 951.234 355.112 951.234 351.812 951.234 349.52 947.422 347.59 941.789 346.674ZM920 338.367C917.541 338.937 915.024 339.216 912.5 339.199 905.002 339.199 899.4 336.953 899.4 334.945 899.4 333.585 902.269 332.115 906.812 331.415L906.119 330.726C901.875 331.458 898.6 332.924 898.6 334.946 898.6 337.684 904.965 340 912.5 340 915.024 340.013 917.54 339.734 920 339.17ZM934.5 303.199C926.388 303.199 922.1 306.37 922.1 312.369L922.1 338.622 934.5 350.965 946.9 338.622 946.9 312.37C946.9 306.371 942.612 303.2 934.5 303.2ZM946.1 338.29 934.5 349.836 922.9 338.29 922.9 312.37C922.9 305.45 929.208 304 934.5 304 939.792 304 946.1 305.451 946.1 312.37ZM934.5 312.1C930.965 312.1 928.1 314.965 928.1 318.5 928.1 322.035 930.965 324.9 934.5 324.9 938.035 324.9 940.9 322.035 940.9 318.5 940.896 314.967 938.033 312.104 934.5 312.1ZM934.5 324.1C931.407 324.1 928.9 321.593 928.9 318.5 928.9 315.407 931.407 312.9 934.5 312.9 937.593 312.9 940.1 315.407 940.1 318.5 940.097 321.591 937.591 324.097 934.5 324.1Z" fill="#DB0B18"/></g></svg>