<svg width="95" height="96" xmlns="http://www.w3.org/2000/svg" xmlns:xlink="http://www.w3.org/1999/xlink" overflow="hidden"><defs><clipPath id="clip0"><rect x="584" y="305" width="95" height="96"/></clipPath><clipPath id="clip1"><rect x="590" y="311" width="75" height="75"/></clipPath><clipPath id="clip2"><rect x="590" y="311" width="75" height="75"/></clipPath><clipPath id="clip3"><rect x="590" y="311" width="75" height="75"/></clipPath></defs><g clip-path="url(#clip0)" transform="translate(-584 -305)"><path d="M585.5 353C585.5 327.319 606.319 306.5 632 306.5 657.681 306.5 678.5 327.319 678.5 353 678.5 378.681 657.681 399.5 632 399.5 606.319 399.5 585.5 378.681 585.5 353Z" stroke="#002060" stroke-width="1.33333" stroke-miterlimit="8" fill="#FFFFFF" fill-rule="evenodd"/><g clip-path="url(#clip1)"><g clip-path="url(#clip2)"><g clip-path="url(#clip3)"><path d="M639.219 367.25C639.219 370.27 641.667 372.719 644.688 372.719 647.708 372.719 650.156 370.27 650.156 367.25 650.156 364.23 647.708 361.781 644.688 361.781 641.669 361.785 639.222 364.231 639.219 367.25ZM648.594 367.25C648.594 369.407 646.845 371.156 644.688 371.156 642.53 371.156 640.781 369.407 640.781 367.25 640.781 365.093 642.53 363.344 644.688 363.344 646.844 363.346 648.591 365.094 648.594 367.25Z" fill="#002060"/><path d="M650.938 351.625 650.938 350.062C637.999 350.077 627.515 360.562 627.5 373.5L629.062 373.5C629.076 361.424 638.862 351.639 650.938 351.625Z" fill="#002060"/><path d="M650.938 339.906 650.938 338.344C631.53 338.366 615.803 354.093 615.781 373.5L617.344 373.5C617.365 354.955 632.393 339.927 650.938 339.906Z" fill="#002060"/><path d="M650.938 328.188 650.938 326.625C625.061 326.654 604.092 347.624 604.062 373.5L605.625 373.5C605.653 348.486 625.924 328.216 650.938 328.188Z" fill="#002060"/></g></g></g></g></svg>